<svg width="164" height="32" viewBox="0 0 164 32" fill="none" xmlns="http://www.w3.org/2000/svg">
<path d="M43.496 6.96C44.888 6.96 46.096 7.192 47.12 7.656C48.16 8.104 48.952 8.76 49.496 9.624C50.056 10.472 50.336 11.464 50.336 12.6C50.336 13.816 50.056 14.88 49.496 15.792C48.936 16.688 48.136 17.376 47.096 17.856C46.072 18.336 44.864 18.576 43.472 18.576H39.104V24H33.632V6.96H43.496ZM42.008 14.976C42.84 14.976 43.472 14.792 43.904 14.424C44.336 14.056 44.552 13.512 44.552 12.792C44.552 12.088 44.336 11.552 43.904 11.184C43.488 10.816 42.864 10.632 42.032 10.632H39.104V14.976H42.008ZM56.8499 15.408C57.1699 14.208 57.7299 13.296 58.5299 12.672C59.3459 12.032 60.3699 11.712 61.6019 11.712C61.8099 11.712 62.0579 11.728 62.3459 11.76V16.488C61.8179 16.408 61.3219 16.368 60.8579 16.368C59.7539 16.368 58.9139 16.616 58.3379 17.112C57.6659 17.688 57.3299 18.56 57.3299 19.728V24H52.0499V12H56.8499V15.408ZM70.9837 24.36C69.4477 24.36 68.0877 24.112 66.9037 23.616C65.7197 23.12 64.7917 22.392 64.1197 21.432C63.4477 20.472 63.1117 19.32 63.1117 17.976C63.1117 16.632 63.4477 15.488 64.1197 14.544C64.7917 13.584 65.7197 12.864 66.9037 12.384C68.0877 11.888 69.4477 11.64 70.9837 11.64C72.5197 11.64 73.8797 11.888 75.0637 12.384C76.2477 12.864 77.1757 13.584 77.8477 14.544C78.5197 15.488 78.8557 16.632 78.8557 17.976C78.8557 19.32 78.5197 20.472 77.8477 21.432C77.1757 22.392 76.2477 23.12 75.0637 23.616C73.8797 24.112 72.5197 24.36 70.9837 24.36ZM70.9837 21.048C71.7677 21.048 72.3837 20.784 72.8317 20.256C73.2957 19.712 73.5277 18.952 73.5277 17.976C73.5277 16.984 73.2957 16.232 72.8317 15.72C72.3837 15.208 71.7677 14.952 70.9837 14.952C70.1997 14.952 69.5757 15.208 69.1117 15.72C68.6637 16.232 68.4397 16.984 68.4397 17.976C68.4397 18.952 68.6637 19.712 69.1117 20.256C69.5757 20.784 70.1997 21.048 70.9837 21.048ZM79.1786 12H81.7706V9.312L87.0506 7.392V12H90.7946V15.264H87.0506V18.312C87.0506 18.952 87.2346 19.44 87.6026 19.776C87.9706 20.096 88.5146 20.256 89.2346 20.256C89.8106 20.256 90.3226 20.208 90.7706 20.112V23.904C89.7146 24.16 88.6986 24.288 87.7226 24.288C85.7866 24.288 84.3066 23.92 83.2826 23.184C82.2746 22.448 81.7706 21.264 81.7706 19.632V15.264H79.1786V12ZM106.778 19.08H96.674C96.77 19.672 97.082 20.144 97.61 20.496C98.138 20.832 98.826 21 99.674 21C100.266 21 100.818 20.88 101.33 20.64C101.858 20.4 102.282 20.056 102.602 19.608L106.466 21.336C105.794 22.28 104.858 23.024 103.658 23.568C102.458 24.096 101.09 24.36 99.554 24.36C97.09 24.36 95.162 23.808 93.77 22.704C92.378 21.584 91.682 20.032 91.682 18.048C91.682 16.752 91.994 15.624 92.618 14.664C93.242 13.688 94.122 12.944 95.258 12.432C96.41 11.904 97.754 11.64 99.29 11.64C101.69 11.64 103.538 12.224 104.834 13.392C106.13 14.56 106.778 16.184 106.778 18.264V19.08ZM101.642 16.512C101.642 15.872 101.426 15.368 100.994 15C100.562 14.616 99.97 14.424 99.218 14.424C98.466 14.424 97.866 14.608 97.418 14.976C96.986 15.344 96.738 15.856 96.674 16.512H101.642ZM114.94 24.36C113.308 24.36 111.828 24.168 110.5 23.784C109.188 23.4 108.084 22.832 107.188 22.08L109.54 19.536C110.26 20.08 111.068 20.488 111.964 20.76C112.876 21.032 113.948 21.168 115.18 21.168C115.836 21.168 116.3 21.12 116.572 21.024C116.86 20.928 117.004 20.768 117.004 20.544C117.004 20.336 116.908 20.184 116.716 20.088C116.54 19.992 116.172 19.912 115.612 19.848L112.636 19.488C111.052 19.28 109.884 18.864 109.132 18.24C108.396 17.6 108.028 16.728 108.028 15.624C108.028 14.344 108.604 13.36 109.756 12.672C110.908 11.984 112.588 11.64 114.796 11.64C116.156 11.64 117.412 11.776 118.564 12.048C119.732 12.32 120.748 12.72 121.612 13.248L119.692 15.96C118.94 15.544 118.14 15.24 117.292 15.048C116.46 14.856 115.532 14.76 114.508 14.76C113.868 14.76 113.412 14.8 113.14 14.88C112.884 14.96 112.756 15.104 112.756 15.312C112.756 15.472 112.828 15.592 112.972 15.672C113.132 15.752 113.428 15.832 113.86 15.912L117.292 16.32C118.828 16.512 119.94 16.912 120.628 17.52C121.316 18.128 121.66 18.992 121.66 20.112C121.66 21.472 121.084 22.52 119.932 23.256C118.78 23.992 117.116 24.36 114.94 24.36ZM122.35 12H124.942V9.312L130.222 7.392V12H133.966V15.264H130.222V18.312C130.222 18.952 130.406 19.44 130.774 19.776C131.142 20.096 131.686 20.256 132.406 20.256C132.982 20.256 133.494 20.208 133.942 20.112V23.904C132.886 24.16 131.87 24.288 130.894 24.288C128.958 24.288 127.478 23.92 126.454 23.184C125.446 22.448 124.942 21.264 124.942 19.632V15.264H122.35V12ZM142.726 24.36C141.19 24.36 139.83 24.112 138.646 23.616C137.462 23.12 136.534 22.392 135.862 21.432C135.19 20.472 134.854 19.32 134.854 17.976C134.854 16.632 135.19 15.488 135.862 14.544C136.534 13.584 137.462 12.864 138.646 12.384C139.83 11.888 141.19 11.64 142.726 11.64C144.262 11.64 145.622 11.888 146.806 12.384C147.99 12.864 148.918 13.584 149.59 14.544C150.262 15.488 150.598 16.632 150.598 17.976C150.598 19.32 150.262 20.472 149.59 21.432C148.918 22.392 147.99 23.12 146.806 23.616C145.622 24.112 144.262 24.36 142.726 24.36ZM142.726 21.048C143.51 21.048 144.126 20.784 144.574 20.256C145.038 19.712 145.27 18.952 145.27 17.976C145.27 16.984 145.038 16.232 144.574 15.72C144.126 15.208 143.51 14.952 142.726 14.952C141.942 14.952 141.318 15.208 140.854 15.72C140.406 16.232 140.182 16.984 140.182 17.976C140.182 18.952 140.406 19.712 140.854 20.256C141.318 20.784 141.942 21.048 142.726 21.048ZM157.303 15.408C157.623 14.208 158.183 13.296 158.983 12.672C159.799 12.032 160.823 11.712 162.055 11.712C162.263 11.712 162.511 11.728 162.799 11.76V16.488C162.271 16.408 161.775 16.368 161.311 16.368C160.207 16.368 159.367 16.616 158.791 17.112C158.119 17.688 157.783 18.56 157.783 19.728V24H152.503V12H157.303V15.408Z" fill="black"/>
<path d="M4 8L4.89806 10.7639H7.80423L5.45308 12.4721L6.35114 15.2361L4 13.5279L1.64886 15.2361L2.54692 12.4721L0.195774 10.7639H3.10194L4 8Z" fill="#0069FF"/>
<path d="M12 8L12.8981 10.7639H15.8042L13.4531 12.4721L14.3511 15.2361L12 13.5279L9.64886 15.2361L10.5469 12.4721L8.19577 10.7639H11.1019L12 8Z" fill="#0069FF"/>
<path d="M4 16L4.89806 18.7639H7.80423L5.45308 20.4721L6.35114 23.2361L4 21.5279L1.64886 23.2361L2.54692 20.4721L0.195774 18.7639H3.10194L4 16Z" fill="#0069FF"/>
<path d="M12 16L12.8981 18.7639H15.8042L13.4531 20.4721L14.3511 23.2361L12 21.5279L9.64886 23.2361L10.5469 20.4721L8.19577 18.7639H11.1019L12 16Z" fill="#0069FF"/>
<path d="M20 4L20.8981 6.76393H23.8042L21.4531 8.47213L22.3511 11.2361L20 9.52786L17.6489 11.2361L18.5469 8.47213L16.1958 6.76393H19.1019L20 4Z" fill="#FF1500"/>
<path d="M20 12L20.8981 14.7639H23.8042L21.4531 16.4721L22.3511 19.2361L20 17.5279L17.6489 19.2361L18.5469 16.4721L16.1958 14.7639H19.1019L20 12Z" fill="#FF1500"/>
<path d="M20 20L20.8981 22.7639H23.8042L21.4531 24.4721L22.3511 27.2361L20 25.5279L17.6489 27.2361L18.5469 24.4721L16.1958 22.7639H19.1019L20 20Z" fill="#FF1500"/>
</svg>
