<svg width="36" height="36" viewBox="0 0 36 36" fill="none" xmlns="http://www.w3.org/2000/svg">
<rect width="36" height="36" fill="white"/>
<path d="M10 10.382L10.8981 13.1459H13.8042L11.4531 14.8541L12.3511 17.618L10 15.9098L7.64886 17.618L8.54691 14.8541L6.19577 13.1459H9.10194L10 10.382Z" fill="#0069FF"/>
<path d="M18 10.382L18.8981 13.1459H21.8042L19.4531 14.8541L20.3511 17.618L18 15.9098L15.6489 17.618L16.5469 14.8541L14.1958 13.1459H17.1019L18 10.382Z" fill="#0069FF"/>
<path d="M10 18.382L10.8981 21.1459H13.8042L11.4531 22.8541L12.3511 25.618L10 23.9098L7.64886 25.618L8.54691 22.8541L6.19577 21.1459H9.10194L10 18.382Z" fill="#0069FF"/>
<path d="M18 18.382L18.8981 21.1459H21.8042L19.4531 22.8541L20.3511 25.618L18 23.9098L15.6489 25.618L16.5469 22.8541L14.1958 21.1459H17.1019L18 18.382Z" fill="#0069FF"/>
<path d="M26 6.38197L26.8981 9.1459H29.8042L27.4531 10.8541L28.3511 13.618L26 11.9098L23.6489 13.618L24.5469 10.8541L22.1958 9.1459H25.1019L26 6.38197Z" fill="#FF1500"/>
<path d="M26 14.382L26.8981 17.1459H29.8042L27.4531 18.8541L28.3511 21.618L26 19.9098L23.6489 21.618L24.5469 18.8541L22.1958 17.1459H25.1019L26 14.382Z" fill="#FF1500"/>
<path d="M26 22.382L26.8981 25.1459H29.8042L27.4531 26.8541L28.3511 29.618L26 27.9098L23.6489 29.618L24.5469 26.8541L22.1958 25.1459H25.1019L26 22.382Z" fill="#FF1500"/>
</svg>
