<?xml version="1.0" standalone="no"?>
<!DOCTYPE svg PUBLIC "-//W3C//DTD SVG 20010904//EN"
 "http://www.w3.org/TR/2001/REC-SVG-20010904/DTD/svg10.dtd">
<svg version="1.0" xmlns="http://www.w3.org/2000/svg"
 width="576.000000pt" height="576.000000pt" viewBox="0 0 576.000000 576.000000"
 preserveAspectRatio="xMidYMid meet">
<metadata>
Created by potrace 1.11, written by Peter Selinger 2001-2013
</metadata>
<g transform="translate(0.000000,576.000000) scale(0.100000,-0.100000)"
fill="#000000" stroke="none">
<path d="M4086 4510 l-68 -210 -232 -2 -231 -3 183 -133 c113 -83 182 -140
182 -150 0 -10 -29 -105 -65 -212 -36 -107 -64 -198 -62 -203 1 -4 83 51 182
123 98 71 182 130 186 130 3 0 87 -58 185 -130 98 -71 180 -128 182 -126 2 2
-28 99 -67 216 l-70 211 118 87 c65 48 149 110 187 137 l69 50 -232 3 -231 2
-68 210 c-37 116 -70 210 -74 210 -3 0 -37 -94 -74 -210z"/>
<path d="M1526 3870 l-68 -210 -231 -2 -232 -3 185 -134 c102 -74 186 -134
187 -135 1 -1 -29 -98 -68 -215 -38 -117 -69 -215 -67 -216 2 -2 84 55 182
126 98 71 182 129 186 129 4 0 87 -58 186 -129 98 -72 180 -129 181 -127 1 1
-29 99 -67 216 -38 118 -68 215 -67 216 1 1 85 61 187 135 l185 134 -232 3
-233 2 -67 210 c-37 116 -70 210 -73 210 -4 0 -37 -94 -74 -210z"/>
<path d="M2806 3870 l-68 -210 -231 -2 -232 -3 185 -134 c102 -74 186 -134
187 -135 1 -1 -29 -98 -68 -215 -38 -117 -69 -215 -67 -216 2 -2 84 55 182
126 98 71 182 129 186 129 4 0 87 -58 186 -129 98 -72 180 -129 181 -127 1 1
-29 99 -67 216 -38 118 -68 215 -67 216 1 1 85 61 187 135 l185 134 -232 3
-233 2 -67 210 c-37 116 -70 210 -73 210 -4 0 -37 -94 -74 -210z"/>
<path d="M4086 3230 l-68 -210 -232 -2 -231 -3 183 -133 c113 -83 182 -140
182 -150 0 -10 -29 -105 -65 -212 -36 -107 -64 -198 -62 -203 1 -4 83 51 182
123 98 71 182 130 186 130 3 0 87 -58 185 -130 98 -71 180 -128 182 -126 2 2
-28 99 -67 216 l-70 211 118 87 c65 48 149 110 187 137 l69 50 -232 3 -231 2
-68 210 c-37 116 -70 210 -74 210 -3 0 -37 -94 -74 -210z"/>
<path d="M1526 2590 l-68 -210 -231 -2 -232 -3 185 -134 c102 -74 186 -134
187 -135 1 -1 -29 -98 -68 -215 -38 -117 -69 -215 -67 -216 2 -2 84 55 182
126 98 71 182 129 186 129 4 0 87 -58 186 -129 98 -72 180 -129 181 -127 1 1
-29 99 -67 216 -38 118 -68 215 -67 216 1 1 85 61 187 135 l185 134 -232 3
-233 2 -67 210 c-37 116 -70 210 -73 210 -4 0 -37 -94 -74 -210z"/>
<path d="M2806 2590 l-68 -210 -231 -2 -232 -3 185 -134 c102 -74 186 -134
187 -135 1 -1 -29 -98 -68 -215 -38 -117 -69 -215 -67 -216 2 -2 84 55 182
126 98 71 182 129 186 129 4 0 87 -58 186 -129 98 -72 180 -129 181 -127 1 1
-29 99 -67 216 -38 118 -68 215 -67 216 1 1 85 61 187 135 l185 134 -232 3
-233 2 -67 210 c-37 116 -70 210 -73 210 -4 0 -37 -94 -74 -210z"/>
<path d="M4086 1950 l-68 -210 -232 -2 -231 -3 183 -133 c113 -83 182 -140
182 -150 0 -10 -29 -105 -65 -212 -36 -107 -64 -198 -62 -203 1 -4 83 51 182
123 98 71 182 130 186 130 3 0 87 -58 185 -130 98 -71 180 -128 182 -126 2 2
-28 99 -67 216 l-70 211 118 87 c65 48 149 110 187 137 l69 50 -232 3 -231 2
-68 210 c-37 116 -70 210 -74 210 -3 0 -37 -94 -74 -210z"/>
</g>
</svg>
