<svg width="32" height="32" fill="none" xmlns="http://www.w3.org/2000/svg"><path d="M10.5 17.5l6-12v9h5l-6 12v-9h-5z" stroke="#000" stroke-width="2" stroke-linecap="round" stroke-linejoin="round"/><path fill-rule="evenodd" clip-rule="evenodd" d="M26.852 21.726c-.26.408-.444.76-.553 1.09a2.21 2.21 0 0 0-.11.51 1.839 1.839 0 0 0 0 .348c.015.167.052.336.11.513.11.328.293.68.553 1.087.03.046.058.092.09.138.214.327-.202.744-.527.53a15.526 15.526 0 0 0-.138-.09c-.407-.262-.758-.447-1.085-.556a2.205 2.205 0 0 0-.509-.11 1.818 1.818 0 0 0-.346 0 2.205 2.205 0 0 0-.509.11c-.327.11-.678.294-1.085.555a7.978 7.978 0 0 0-.137.09c-.326.215-.74-.202-.526-.529l.09-.138c.255-.403.438-.75.546-1.076.058-.174.095-.34.11-.506a1.956 1.956 0 0 0 0-.367 2.253 2.253 0 0 0-.116-.506c-.11-.323-.297-.669-.558-1.07l-.09-.136c-.219-.325.191-.747.52-.535.046.03.092.06.138.088.415.26.771.443 1.103.55.177.057.347.092.516.105.11.01.217.01.326 0a2.23 2.23 0 0 0 .515-.11c.331-.11.686-.298 1.097-.562l.138-.09c.325-.215.741.202.526.53l-.052.078-.037.06zM9.852 6.726c-.26.408-.444.76-.553 1.09a2.21 2.21 0 0 0-.11.51 1.839 1.839 0 0 0 0 .348c.015.167.052.336.11.513.11.328.293.68.553 1.087.03.046.058.092.09.138.214.327-.202.744-.527.53a15.526 15.526 0 0 0-.138-.09c-.407-.262-.758-.447-1.085-.556a2.205 2.205 0 0 0-.509-.11 1.818 1.818 0 0 0-.346 0 2.205 2.205 0 0 0-.509.11c-.327.11-.678.294-1.085.555a7.978 7.978 0 0 0-.137.09c-.326.215-.74-.202-.526-.529l.09-.138c.255-.403.438-.75.546-1.076.058-.174.095-.34.11-.506a1.956 1.956 0 0 0 0-.367 2.253 2.253 0 0 0-.116-.506c-.11-.323-.297-.669-.558-1.07l-.09-.136c-.219-.325.191-.747.52-.535.046.03.092.06.138.088.415.26.771.443 1.103.55.177.057.347.092.516.105.11.01.217.01.326 0a2.23 2.23 0 0 0 .515-.11c.331-.11.686-.298 1.097-.562l.138-.09c.325-.215.741.202.526.53l-.052.078-.037.06z" fill="#000"/></svg>