<svg width="32" height="32" fill="none" xmlns="http://www.w3.org/2000/svg"><path fill-rule="evenodd" clip-rule="evenodd" d="M30 16c0 7.364-6.636 14-14 14S2 23.364 2 16 8.636 2 16 2s14 6.636 14 14zm2 0c0 8.836-7.164 16-16 16S0 24.836 0 16 7.164 0 16 0s16 7.164 16 16z" fill="#000"/><path fill-rule="evenodd" clip-rule="evenodd" d="M13.153 4.434a1 1 0 0 0-1.225.707L6.234 26.392a1 1 0 1 0 1.932.517l2.745-10.242.187.057c1.057.315 2.811.839 5.449 2.801 6.447 4.796 8.206-1.17 9.5-6 .634-2.366.3-2.364-.86-2.359-1.207.005-3.307.014-6.14-2.641-2.401-2.25-4.034-3.022-5.255-2.612l.068-.254a1 1 0 0 0-.707-1.225z" fill="#000"/></svg>