<svg width="32" height="32" fill="none" xmlns="http://www.w3.org/2000/svg"><path fill-rule="evenodd" clip-rule="evenodd" d="M28 16C28 6 26 4 16 4S4 6 4 16s2 12 12 12 12-2 12-12zm-3.664 8.336C25.425 23.247 26 21.1 26 16c0-2.14-.101-3.76-.3-5H6.3C6.1 12.24 6 13.86 6 16c0 5.1.575 7.247 1.664 8.336C8.753 25.425 10.9 26 16 26s7.247-.575 8.336-1.664zM11 8a1 1 0 0 1 1-1h8a1 1 0 0 1 0 2h-8a1 1 0 0 1-1-1z" fill="#000"/><path d="M15.12 19.086l3.414-3.414a1.001 1.001 0 0 1 1.414 1.414L18.535 18.5l-1.415 1.414-1.413 1.414a1.001 1.001 0 0 1-1.414-1.414l.827-.828z" fill="#000"/><path d="M14.88 19.086l-1.414-1.414a1.001 1.001 0 0 0-1.414 1.414l1.413 1.414-.585-.586 1.413 1.414a1.001 1.001 0 0 0 1.414-1.414l-.827-.828z" fill="#000"/></svg>