<svg width="32" height="32" fill="none" xmlns="http://www.w3.org/2000/svg"><path fill-rule="evenodd" clip-rule="evenodd" d="M26 16c0 5.523-4.477 10-10 10S6 21.523 6 16 10.477 6 16 6s10 4.477 10 10zm2 0c0 6.627-5.373 12-12 12S4 22.627 4 16 9.373 4 16 4s12 5.373 12 12z" fill="#000"/><path d="M24.464 27.856c-.478.276-1.062.16-1.303-.257l-7.126-12.341c-.241-.419-.049-.982.429-1.258s1.062-.16 1.304.258l7.125 12.34c.241.419.05.982-.429 1.258z" fill="#000"/><path d="M20.196 16.464a1 1 0 0 1-.366 1.366l1 1.732a3 3 0 0 0 1.098-4.098l-1.5-2.598a1 1 0 1 0-1.732 1l1.5 2.598zM16.732 18.464a1 1 0 0 0 1.366.366l1 1.732A3 3 0 0 1 15 19.464l-1.5-2.598a1 1 0 1 1 1.732-1l1.5 2.598z" fill="#000"/></svg>