<svg width="32" height="32" fill="none" xmlns="http://www.w3.org/2000/svg"><path d="M14 11c0 2.017-.3 2.473-.414 2.586-.113.113-.57.414-2.586.414-2.017 0-2.473-.3-2.586-.414C8.301 13.473 8 13.016 8 11c0-2.017.3-2.473.414-2.586C8.527 8.301 8.984 8 11 8c2.017 0 2.473.3 2.586.414.113.113.414.57.414 2.586zM24 11c0 2.017-.3 2.473-.414 2.586-.113.113-.57.414-2.586.414-2.017 0-2.473-.3-2.586-.414-.113-.113-.414-.57-.414-2.586 0-2.017.3-2.473.414-2.586C18.527 8.301 18.984 8 21 8c2.017 0 2.473.3 2.586.414.113.113.414.57.414 2.586zM14 21c0 2.017-.3 2.473-.414 2.586-.113.113-.57.414-2.586.414-2.017 0-2.473-.3-2.586-.414C8.301 23.473 8 23.016 8 21c0-2.017.3-2.473.414-2.586.113-.113.57-.414 2.586-.414 2.017 0 2.473.3 2.586.414.113.113.414.57.414 2.586zM24 21c0 2.017-.3 2.473-.414 2.586-.113.113-.57.414-2.586.414-2.017 0-2.473-.3-2.586-.414-.113-.113-.414-.57-.414-2.586 0-2.017.3-2.473.414-2.586.113-.113.57-.414 2.586-.414 2.017 0 2.473.3 2.586.414.113.113.414.57.414 2.586z" stroke="#000" stroke-width="2"/></svg>