<svg width="32" height="32" fill="none" xmlns="http://www.w3.org/2000/svg"><path fill-rule="evenodd" clip-rule="evenodd" d="M19.08 10.873c0 1.683-.27 2.24-.468 2.456-.163.176-.68.544-2.531.544-1.85 0-2.367-.368-2.53-.544-.198-.215-.47-.773-.47-2.456a3 3 0 1 1 6 0zm.836 3.977c.878-.804 1.164-2.104 1.164-3.977a5 5 0 1 0-10 0c0 1.873.288 3.173 1.167 3.977a8.025 8.025 0 0 0-3.649 4.188c-.124.328-.154.708.051.993.569.79 1.674-.11 2.13-.97a6 6 0 1 1 10.605 0c.455.86 1.56 1.76 2.128.97.205-.285.176-.665.052-.993a8.034 8.034 0 0 0-3.648-4.188z" fill="#000"/><path d="M13 21.493a1 1 0 0 1 1-1.732l5.196 3a1 1 0 1 1-1 1.732l-5.196-3z" fill="#000"/><path d="M15.098 19.127a1 1 0 0 1 2 0v6a1 1 0 1 1-2 0v-6z" fill="#000"/><path d="M13 22.76a1 1 0 0 0 1 1.733l5.196-3a1 1 0 1 0-1-1.732l-5.196 3z" fill="#000"/></svg>