<svg fill-rule="evenodd" clip-rule="evenodd" stroke-linejoin="round" stroke-miterlimit="1.414" xmlns="http://www.w3.org/2000/svg" aria-label="link" viewBox="0 0 32 32" fill="currentColor" width="48" height="48"><path d="M16.693 16.664c.376-.375 1.001-.413 1.377-.038l.083.084c.358.357.386.93.032 1.291l-.077.078c-.867.866-1.671 1.438-2.514 1.655h-.001a3.2 3.2 0 0 1-.236.051c-.802.142-1.646-.036-2.616-.582-.907-.511-1.923-1.343-3.119-2.539-3.959-3.959-3.939-5.959-1.414-8.485 2.526-2.525 4.526-2.545 8.485 1.414.439.439.828.853 1.171 1.247.102.117-.009.3-.162.28h-.001a4.084 4.084 0 0 0-1.58.094.874.874 0 0 1-.842-.206c-1.958-1.958-3.035-2.492-3.63-2.571-.366-.049-.902.032-2.027 1.156-1.124 1.125-1.205 1.661-1.156 2.027.079.595.613 1.672 2.571 3.63.432.433.822.796 1.173 1.1l.136.117c.841.712 1.45 1.073 1.891 1.24.166.062.308.098.429.114.367.049.903-.032 2.027-1.157zm3.07-1.099c-.912-.79-1.563-1.181-2.027-1.357a1.922 1.922 0 0 0-.43-.114c-.367-.049-.902.032-2.027 1.156-.375.376-1.001.414-1.376.038l-.083-.083c-.358-.358-.387-.931-.032-1.291l.077-.078c.866-.866 1.671-1.438 2.514-1.655.873-.225 1.786-.07 2.853.531.906.51 1.923 1.343 3.118 2.538 3.96 3.96 3.94 5.96 1.414 8.486-2.525 2.525-4.525 2.545-8.485-1.415a24.892 24.892 0 0 1-1.171-1.246c-.102-.117.009-.301.163-.28a4.09 4.09 0 0 0 1.581-.094.872.872 0 0 1 .841.206c1.958 1.958 3.035 2.492 3.63 2.571.367.049.903-.032 2.027-1.157 1.125-1.124 1.206-1.66 1.157-2.027-.079-.595-.613-1.672-2.571-3.63a22.96 22.96 0 0 0-1.173-1.099z"/></svg>