<svg width="32" height="32" viewBox="0 0 32 32" fill="currentColor" xmlns="http://www.w3.org/2000/svg">
<path fill-rule="evenodd" clip-rule="evenodd" d="M16 14C16.5523 14 17 13.5523 17 13C17 12.4477 16.5523 12 16 12C15.4477 12 15 12.4477 15 13C15 13.5523 15.4477 14 16 14ZM16 16C17.6569 16 19 14.6569 19 13C19 11.3431 17.6569 10 16 10C14.3431 10 13 11.3431 13 13C13 14.6569 14.3431 16 16 16Z"/>
<path fill-rule="evenodd" clip-rule="evenodd" d="M16 6C12.134 6 9 9.13401 9 13C9 13.8605 9.40798 15.1121 10.1467 16.6089C10.8683 18.0709 11.8404 19.6406 12.8275 21.0954C13.8122 22.5467 14.7988 23.8648 15.5403 24.8211C15.7071 25.0362 15.8612 25.2327 16 25.4081C16.1388 25.2327 16.2929 25.0362 16.4597 24.8211C17.2012 23.8648 18.1878 22.5467 19.1725 21.0954C20.1596 19.6406 21.1317 18.0709 21.8533 16.6089C22.592 15.1121 23 13.8605 23 13C23 9.13401 19.866 6 16 6ZM16 27C15.2324 27.6409 15.2321 27.6406 15.2321 27.6406L15.2254 27.6326L15.2071 27.6105L15.1378 27.5264C15.0775 27.4532 14.9898 27.3459 14.8785 27.2083C14.6561 26.9331 14.3394 26.5362 13.9597 26.0466C13.2012 25.0682 12.1878 23.7147 11.1725 22.2183C10.1596 20.7254 9.13169 19.0712 8.35327 17.494C7.59202 15.9516 7 14.3487 7 13C7 8.02944 11.0294 4 16 4C20.9706 4 25 8.02944 25 13C25 14.3487 24.408 15.9516 23.6467 17.494C22.8683 19.0712 21.8404 20.7254 20.8275 22.2183C19.8122 23.7147 18.7988 25.0682 18.0403 26.0466C17.6606 26.5362 17.3439 26.9331 17.1215 27.2083C17.0102 27.3459 16.9225 27.4532 16.8622 27.5264L16.7929 27.6105L16.7746 27.6326L16.7683 27.6401C16.7683 27.6401 16.7676 27.6409 16 27ZM16 27L16.7676 27.6409C16.5776 27.8685 16.2965 28 16 28C15.7035 28 15.4221 27.8682 15.2321 27.6406L16 27Z" />
</svg>
